<svg width="20" height="24" viewBox="0 0 20 24" fill="none" xmlns="http://www.w3.org/2000/svg">
<path d="M14.7728 8.63974V8.48974H14.6228H13.4051H13.2551V8.63974C13.2551 9.5978 12.9258 10.4262 12.2634 11.132C11.6012 11.8376 10.828 12.1846 9.9375 12.1846C9.047 12.1846 8.27385 11.8376 7.61158 11.132C6.94918 10.4262 6.61985 9.5978 6.61985 8.63974V8.48974H6.46985H5.27868H5.12868V8.63974C5.12868 10.0313 5.60175 11.2339 6.54577 12.2398C7.49001 13.2459 8.62297 13.7538 9.9375 13.7538C11.252 13.7538 12.3891 13.246 13.342 12.2403C14.295 11.2346 14.7728 10.0318 14.7728 8.63974ZM1.27812 22.8732C1.60536 23.2218 2.00622 23.4 2.47279 23.4H17.4022C17.8688 23.4 18.2696 23.2218 18.5969 22.8732C18.9238 22.5248 19.0875 22.1023 19.0875 21.6141V7.73718C19.0875 7.26599 18.9226 6.85337 18.5969 6.50632C18.2696 6.15765 17.8688 5.97949 17.4022 5.97949H14.665C14.6318 4.65177 14.1545 3.51251 13.2346 2.56961C12.2813 1.59253 11.1446 1.1 9.83162 1.1C8.51825 1.1 7.41462 1.59302 6.53049 2.57393C5.68015 3.51735 5.24053 4.6552 5.20982 5.97949H2.47279C2.00622 5.97949 1.60536 6.15765 1.27812 6.50632C0.952423 6.85337 0.7875 7.26599 0.7875 7.73718V21.6141C0.7875 22.1023 0.951188 22.5248 1.27812 22.8732ZM17.5311 21.7653C17.4836 21.8159 17.4419 21.8308 17.4022 21.8308H2.47279C2.43306 21.8308 2.39139 21.8159 2.34393 21.7653C2.29668 21.715 2.27868 21.6661 2.27868 21.6141V7.73718C2.27868 7.71237 2.28963 7.67206 2.34393 7.61419C2.39139 7.56362 2.43305 7.54872 2.47279 7.54872H17.4022C17.4419 7.54872 17.4836 7.56362 17.5311 7.61419C17.5854 7.67206 17.5963 7.71237 17.5963 7.73718V21.6141C17.5963 21.6661 17.5783 21.7149 17.5311 21.7653ZM6.72823 5.97949C6.75885 5.06576 7.07163 4.29721 7.66452 3.66547C8.28976 2.99927 9.04458 2.66923 9.9375 2.66923C10.8304 2.66923 11.5852 2.99927 12.2105 3.66547C12.8034 4.29721 13.1162 5.06576 13.1468 5.97949H6.72823Z" fill="#C0C0C0" stroke="#C0C0C0" stroke-width="0.3"/>
</svg>
