<svg width="15" height="15" viewBox="0 0 15 15" fill="none" xmlns="http://www.w3.org/2000/svg">
<path d="M11.3043 0.5H3.72105C3.29972 0.499992 2.88251 0.582973 2.49325 0.744205C2.10399 0.905437 1.75031 1.14176 1.45238 1.43969C1.15446 1.73761 0.918132 2.0913 0.7569 2.48056C0.595668 2.86982 0.512687 3.28702 0.512695 3.70835V11.2916C0.512695 12.1426 0.850718 12.9586 1.4524 13.5603C1.75032 13.8582 2.10401 14.0945 2.49326 14.2558C2.88252 14.417 3.29972 14.5 3.72105 14.5H11.3043C12.1552 14.5 12.9713 14.162 13.5729 13.5603C14.1746 12.9586 14.5126 12.1425 14.5126 11.2916V3.70835C14.5126 3.28703 14.4297 2.86983 14.2684 2.48057C14.1072 2.09132 13.8709 1.73763 13.573 1.43971C13.275 1.14179 12.9214 0.905458 12.5321 0.744222C12.1429 0.582987 11.7257 0.5 11.3043 0.5ZM7.51269 11.9133C6.63982 11.9133 5.78654 11.6545 5.06077 11.1696C4.33501 10.6846 3.76934 9.99534 3.4353 9.18891C3.10127 8.38248 3.01387 7.4951 3.18416 6.639C3.35445 5.7829 3.77478 4.99651 4.39199 4.3793C5.00921 3.76208 5.79559 3.34175 6.65169 3.17146C7.5078 3.00117 8.39517 3.08857 9.2016 3.42261C10.008 3.75664 10.6973 4.32231 11.1823 5.04808C11.6672 5.77385 11.926 6.62712 11.926 7.5C11.926 8.07957 11.8119 8.65346 11.5901 9.18891C11.3683 9.72436 11.0432 10.2109 10.6334 10.6207C10.2236 11.0305 9.73706 11.3556 9.2016 11.5774C8.66615 11.7992 8.09226 11.9133 7.51269 11.9133ZM12.11 3.98822C11.9023 3.98824 11.6993 3.92667 11.5267 3.8113C11.354 3.69593 11.2194 3.53195 11.1399 3.3401C11.0604 3.14824 11.0396 2.93712 11.0801 2.73344C11.1206 2.52976 11.2206 2.34266 11.3675 2.19581C11.5143 2.04896 11.7014 1.94896 11.9051 1.90844C12.1088 1.86792 12.3199 1.88871 12.5117 1.96817C12.7036 2.04764 12.8676 2.18222 12.983 2.35489C13.0983 2.52756 13.1599 2.73057 13.1599 2.93824C13.1599 3.2167 13.0493 3.48376 12.8524 3.68067C12.6555 3.87758 12.3885 3.98821 12.11 3.98822Z" fill="#C0C0C0"/>
<path d="M7.51259 4.63086C6.94521 4.63086 6.39057 4.79911 5.91881 5.11433C5.44705 5.42955 5.07936 5.87758 4.86223 6.40177C4.6451 6.92596 4.58829 7.50277 4.69898 8.05924C4.80967 8.61572 5.08289 9.12688 5.48409 9.52808C5.88529 9.92928 6.39645 10.2025 6.95293 10.3132C7.5094 10.4239 8.08621 10.3671 8.6104 10.1499C9.13459 9.93282 9.58263 9.56512 9.89785 9.09336C10.2131 8.6216 10.3813 8.06697 10.3813 7.49958C10.3813 6.73875 10.0791 6.00908 9.54108 5.47109C9.00309 4.9331 8.27342 4.63086 7.51259 4.63086Z" fill="#C0C0C0"/>
</svg>
