<svg width="8" height="15" viewBox="0 0 8 15" fill="none" xmlns="http://www.w3.org/2000/svg">
<path d="M7.22975 0.5H1.23678C0.837253 0.5 0.512634 0.824619 0.512634 1.22415V7.16718C0.512634 7.56671 0.837253 7.89133 1.23678 7.89133H3.98356C3.95859 8.59051 3.65894 9.3646 3.23444 10.0388C2.76 10.8129 1.7362 11.6619 1.71123 11.6619C1.63632 11.7368 1.5614 11.8367 1.5614 11.9616C1.5614 12.0614 1.61135 12.1364 1.66129 12.2113L3.58403 14.3587C3.58403 14.3587 3.68391 14.4586 3.75883 14.4836C3.83374 14.5086 3.93362 14.5086 4.00853 14.4586C7.32964 11.8866 7.82905 8.69039 7.90396 6.94244V1.24912C7.95391 0.824619 7.62929 0.5 7.22975 0.5Z" fill="#C0C0C0"/>
</svg>
