<svg width="19" height="19" viewBox="0 0 19 19" fill="none" xmlns="http://www.w3.org/2000/svg">
<path d="M9.625 9.18092C8.465 9.18092 7.51 8.78619 6.76 7.99671C6.01 7.20724 5.635 6.20197 5.635 4.98092C5.635 3.75987 6.01 2.75987 6.76 1.98092C7.51 1.20197 8.465 0.8125 9.625 0.8125C10.785 0.8125 11.74 1.20197 12.49 1.98092C13.24 2.75987 13.615 3.75987 13.615 4.98092C13.615 6.20197 13.24 7.20724 12.49 7.99671C11.74 8.78619 10.785 9.18092 9.625 9.18092ZM0.625 18.8125V16.4125C0.625 15.7388 0.795 15.1493 1.135 14.6441C1.475 14.1388 1.915 13.7493 2.455 13.4757C3.735 12.8862 4.96 12.4441 6.13 12.1493C7.3 11.8546 8.465 11.7072 9.625 11.7072C10.785 11.7072 11.95 11.8599 13.12 12.1651C14.29 12.4704 15.505 12.9178 16.765 13.5072C17.325 13.7809 17.775 14.1651 18.115 14.6599C18.455 15.1546 18.625 15.7388 18.625 16.4125V18.8125H0.625ZM1.975 17.3914H17.275V16.4125C17.275 16.0967 17.175 15.7862 16.975 15.4809C16.775 15.1757 16.515 14.9388 16.195 14.7704C15.015 14.1599 13.9 13.7336 12.85 13.4914C11.8 13.2493 10.725 13.1283 9.625 13.1283C8.525 13.1283 7.44 13.2493 6.37 13.4914C5.3 13.7336 4.185 14.1599 3.025 14.7704C2.725 14.9388 2.475 15.1757 2.275 15.4809C2.075 15.7862 1.975 16.0967 1.975 16.4125V17.3914ZM9.625 7.75987C10.365 7.75987 10.985 7.49671 11.485 6.9704C11.985 6.44408 12.235 5.78092 12.235 4.98092C12.235 4.20197 11.985 3.54934 11.485 3.02303C10.985 2.49671 10.365 2.23355 9.625 2.23355C8.885 2.23355 8.265 2.49671 7.765 3.02303C7.265 3.54934 7.015 4.20197 7.015 4.98092C7.015 5.78092 7.265 6.44408 7.765 6.9704C8.265 7.49671 8.885 7.75987 9.625 7.75987Z" fill="#C0C0C0" stroke="#C0C0C0" stroke-width="0.2"/>
</svg>
