<svg width="18" height="15" viewBox="0 0 18 15" fill="none" xmlns="http://www.w3.org/2000/svg">
<path d="M17.0074 2.15724C16.3991 2.43875 15.7445 2.62864 15.0577 2.71362C15.759 2.27649 16.2967 1.58408 16.5503 0.758081C15.8943 1.16339 15.1682 1.45749 14.3947 1.61625C13.7757 0.929435 12.8934 0.5 11.9171 0.5C10.0426 0.5 8.52288 2.08241 8.52288 4.03445C8.52288 4.31106 8.55277 4.58068 8.61088 4.83981C5.78966 4.69224 3.28817 3.28538 1.61391 1.14695C1.32171 1.66871 1.15446 2.27579 1.15446 2.92414C1.15446 4.1502 1.75363 5.23218 2.66448 5.86584C2.1083 5.8473 1.58469 5.68819 1.12692 5.42347C1.12658 5.43815 1.12658 5.45319 1.12658 5.46823C1.12658 7.18037 2.29672 8.60856 3.84973 8.93378C3.56492 9.01421 3.265 9.05758 2.95534 9.05758C2.73636 9.05758 2.52376 9.03555 2.31653 8.99393C2.74878 10.398 4.00221 11.4202 5.48738 11.4485C4.32564 12.3965 2.8623 12.9617 1.27167 12.9617C0.997946 12.9617 0.727579 12.9449 0.461914 12.912C1.96455 13.9153 3.74864 14.5 5.66539 14.5C11.9094 14.5 15.3234 9.11458 15.3234 4.44395C15.3234 4.29078 15.3203 4.13796 15.314 3.98619C15.977 3.48891 16.5526 2.86609 17.0074 2.15724Z" fill="#C0C0C0"/>
</svg>
