<svg width="20" height="15" viewBox="0 0 20 15" fill="none" xmlns="http://www.w3.org/2000/svg">
<path d="M19.876 3.59149C19.876 1.95096 18.6417 0.631243 17.1164 0.631243C15.0504 0.536456 12.9434 0.5 10.7917 0.5C10.6798 0.5 10.5679 0.5 10.4561 0.5C10.3442 0.5 10.2323 0.5 10.1204 0.5C7.97241 0.5 5.86168 0.536456 3.7957 0.631243C2.27418 0.631243 1.03981 1.95825 1.03981 3.59879C0.946582 4.89663 0.905561 6.19448 0.90929 7.49232C0.905561 8.79016 0.946582 10.088 1.03608 11.3895C1.03608 13.03 2.27045 14.3607 3.79197 14.3607C5.96237 14.4591 8.1887 14.5029 10.4523 14.4992C12.7197 14.5065 14.9386 14.4628 17.1127 14.3607C18.6379 14.3607 19.8723 13.03 19.8723 11.3895C19.9618 10.088 20.0028 8.79016 19.9991 7.48867C20.0066 6.19083 19.9655 4.89298 19.876 3.59149ZM8.62875 11.0687V3.90502L14.0361 7.48503L8.62875 11.0687Z" fill="#C0C0C0"/>
</svg>
